<?xml version="1.0" standalone="no"?>
<!DOCTYPE svg PUBLIC "-//W3C//DTD SVG 20010904//EN"
 "http://www.w3.org/TR/2001/REC-SVG-20010904/DTD/svg10.dtd">
<svg version="1.0" xmlns="http://www.w3.org/2000/svg"
 width="512.000000pt" height="512.000000pt" viewBox="0 0 512.000000 512.000000"
 preserveAspectRatio="xMidYMid meet">
<metadata>
Created by potrace 1.11, written by Peter Selinger 2001-2013
</metadata>
<g transform="translate(0.000000,512.000000) scale(0.100000,-0.100000)"
fill="#000000" stroke="none">
<path d="M2721 5109 c-78 -15 -169 -65 -230 -127 -95 -94 -139 -198 -139 -329
-1 -214 140 -396 348 -453 57 -16 171 -16 230 -1 174 45 323 209 347 381 38
278 -160 521 -435 534 -42 2 -97 0 -121 -5z"/>
<path d="M1635 4114 c-33 -8 -102 -35 -153 -60 -77 -37 -108 -60 -175 -127
-223 -223 -418 -516 -498 -747 -27 -79 -33 -110 -33 -185 -1 -81 2 -95 26
-137 50 -83 153 -153 301 -204 151 -52 238 -58 327 -25 112 42 151 102 230
361 23 74 55 173 70 220 37 110 161 500 195 613 45 145 28 233 -54 281 -42 24
-155 29 -236 10z"/>
<path d="M2245 3979 c-43 -38 -58 -65 -79 -144 -8 -33 -24 -91 -35 -130 -11
-38 -31 -113 -46 -165 -14 -52 -32 -117 -40 -145 -32 -107 -178 -635 -201
-725 -72 -290 -37 -463 133 -635 43 -44 186 -171 318 -281 132 -110 309 -258
393 -328 l153 -129 -6 -56 c-3 -31 -8 -72 -10 -91 -3 -19 -7 -62 -10 -95 -3
-33 -8 -78 -10 -100 -2 -22 -7 -71 -10 -110 -4 -38 -8 -81 -10 -95 -2 -14 -7
-56 -10 -95 -4 -38 -11 -99 -15 -135 -5 -36 -8 -130 -7 -210 2 -125 5 -150 23
-184 27 -52 62 -77 117 -83 42 -5 47 -3 85 37 60 61 94 156 137 380 3 14 10
50 16 80 5 30 12 66 15 80 2 14 9 48 14 75 6 28 12 61 15 75 3 14 12 61 21
105 18 95 43 228 50 270 3 17 12 61 20 98 37 180 39 319 6 388 -15 30 -122
144 -352 373 -181 182 -330 332 -330 334 0 4 35 149 232 955 7 26 14 47 17 47
3 0 114 -79 246 -175 132 -96 255 -182 273 -190 50 -25 125 -34 165 -20 28 10
242 135 343 202 l22 14 0 -1534 c0 -844 3 -1545 7 -1558 19 -60 89 -90 148
-65 75 31 69 -108 69 1686 l0 1607 87 64 c106 79 155 146 148 201 -12 89 -92
132 -194 103 l-42 -13 1 97 c1 122 -6 155 -44 186 -45 38 -100 35 -144 -9 -38
-38 -36 -27 -35 -239 l1 -138 -148 -70 c-81 -39 -163 -77 -183 -86 l-37 -14
-313 229 c-173 126 -323 234 -334 239 -19 10 -315 97 -370 108 -5 2 -42 12
-81 24 -101 30 -136 28 -179 -10z"/>
<path d="M1749 1928 c-1 -5 -2 -11 -3 -15 -1 -5 -6 -33 -10 -63 -4 -30 -9 -66
-11 -80 -3 -14 -7 -45 -10 -70 -3 -25 -16 -115 -29 -200 l-23 -155 -106 -240
c-115 -264 -130 -296 -242 -535 -135 -286 -161 -394 -110 -445 18 -19 35 -25
66 -25 123 0 239 118 471 480 210 327 319 499 354 559 32 56 78 182 104 287 4
18 10 36 14 42 3 5 -42 45 -101 88 -131 98 -310 273 -340 334 -13 25 -23 42
-24 38z"/>
</g>
</svg>
